#!OML:ASF F:\VICON\USERDATA\INSTALL\rory3\rory3.ASF
:FULLY-SPECIFIED
:DEGREES
27
root 0.3103245248009832 17.382212397416158 -7.604988978620556 -0.2882384969319818 -1.3036798405243708 -1.084230422521821
lfemur -17.51501387344214 -2.4936198451144667 -22.845751228171395
ltibia 23.960991041841098
lfoot -7.377267196800127 -2.0719612323397083
ltoes -4.5404480320325735
rfemur -11.370066105943206 -3.820643836923954 25.26233153739366
rtibia 89.62063726649625
rfoot 22.445387576116527 -4.69834326043247
rtoes 15.505422245109935
lowerback 12.192136826211085 1.1174041111696345 1.2870687687062148
upperback -1.3690658726917355 1.881576764856122 0.4118492313452189
thorax -6.873673140622144 0.8872962067223313 -0.6815077841354162
lowerneck -17.728387397004003 -3.679590120008193 -1.8693989055565345
upperneck 16.137531552039924 -4.909172346388337 1.6801341760421855
head 8.218032357366686 -2.24931904337155 0.23487514896422132
lclavicle -1.672738539977543e-15 -3.590153835484575e-15
lhumerus -45.8582443756851 -0.33322533561827505 86.31126095739418
lradius 59.845246176728025
lwrist 10.987547292196599
lhand -27.34787476551468 12.166833929152915
lfingers 7.125019999999999
lthumb -0.906571588158323 42.26185922117367
rclavicle -1.6744520264326918e-15 -3.591348841997345e-15
rhumerus -36.58225495419533 -5.3777311358761395 -89.3456254184951
rradius 71.03611717061
rwrist -2.1626435215883335
rhand -18.481936819207636 30.261793877254657
rfingers 7.125019999999999
rthumb 7.542640826164179 0.8679208278859591
28
root 0.31065877534164055 17.36453484620719 -6.635476740293345 -0.5427414722710562 -1.2006351543119087 -0.45508914529428446
lfemur -14.103776478226708 -2.641155742600099 -23.877718365096097
ltibia 25.48522423842289
lfoot -9.4156257213702 -1.5421490448883466
ltoes -4.805112527892101
rfemur -19.67813214757406 -5.7175166448656665 24.56218858027961
rtibia 96.24013494380375
rfoot 11.982818803411437 -8.496055832972022
rtoes 14.111248714354955
lowerback 12.775117521862974 0.8680313533321475 0.38023518037820103
upperback -1.0521433962103768 1.4326782459872036 0.317558837920487
thorax -6.693833825930177 0.7011371297727269 -0.39344864722422246
lowerneck -17.560160530088034 -3.642248915085394 -1.957944247144049
upperneck 16.270900950760378 -4.790772625282384 1.7412166247930352
head 8.194683816115802 -2.2003925682227643 0.3287877412595841
lclavicle -1.6737863338397051e-15 -3.5908972880925885e-15
lhumerus -44.5949468512297 -1.347419559319028 86.45036655253591
lradius 59.49527192854375
lwrist 8.77455094179161
lhand -27.24667709604566 12.321418665968453
lfingers 7.125019999999999
lthumb -0.7172932316647387 42.43669332310745
rclavicle -1.6745627929690281e-15 -3.591427148975719e-15
rhumerus -37.59235695050279 -7.176952157277359 -88.34583927194414
rradius 68.2423093463998
rwrist -0.03222656235206012
rhand -18.459507597869056 30.582901069286113
rfingers 7.125019999999999
rthumb 7.396559285407037 0.7282562491402592
29
root 0.2890624834679224 17.449238406087897 -5.68518571535685 -0.7634967820199043 -0.7766927089085923 0.001057884274510812
lfemur -11.236547131025427 -2.7363621980277943 -24.7348095493568
ltibia 28.05458196432432
lfoot -8.814863915241215 -2.06951046363647
ltoes -5.382987126652874
rfemur -26.39031661838456 -7.107247121490449 24.56745917516453
rtibia 96.15124416714801
rfoot 5.5871599140988915 -8.02087530562466
rtoes 14.436802320491879
lowerback 13.375039858246598 0.5394334966151462 -0.3575115328767784
upperback -0.7946462052970513 0.8373901725528647 0.44143168726233584
thorax -6.650128447538197 0.43315926302914637 -0.008553092117305039
lowerneck -17.286549330416893 -3.5659475400562646 -2.010118309901283
upperneck 16.48202084699915 -4.696024672483388 1.6855996455095505
head 8.145288220012727 -2.1715733660260517 0.3666608645198722
lclavicle -1.6738974280153694e-15 -3.590975331350993e-15
lhumerus -43.55578299765646 -2.2708024905162794 86.57988781362118
lradius 59.580106291329
lwrist 7.7180731593605145
lhand -27.53839551607712 12.339077827289042
lfingers 7.125019999999999
lthumb -0.7817198122906923 42.61837412811143
rclavicle -1.674869777042777e-15 -3.591644193609856e-15
rhumerus -38.87790642613798 -8.490518172114978 -87.2717467164041
rradius 66.2448608157408
rwrist 1.472834835622928
rhand -18.175272248286856 29.507823570334807
rfingers 7.125019999999999
rthumb 8.105428388231074 0.3591130778165146
30
root 0.2611019871719433 17.654148421896096 -4.5561487425649645 -0.6848630085847207 -1.074062450816925 -0.42642264966044174
lfemur -9.039176300114613 -2.043445253580422 -24.456954534477706
ltibia 29.153891323397396
lfoot -4.2322328923258805 -4.123381838814762
ltoes -6.541601203461136
rfemur -31.64020189966177 -6.660130709550918 25.467462533431476
rtibia 89.85217625357167
rfoot 0.6118698930969089 -7.541688942170551
rtoes 13.630507900537172
lowerback 13.860233524691559 0.39866862946964715 -0.44284575535695403
upperback -0.5772685591167193 0.5740874835525942 0.7206520524909962
thorax -6.654962241170022 0.315161849656754 0.24873289794489395
lowerneck -17.06359888090034 -3.6065628862192267 -2.098100058524522
upperneck 16.77669846149636 -4.743431503543893 1.837553504316661
head 8.176133563471895 -2.1884699626315713 0.43714534227426916
lclavicle -1.6743086453089755e-15 -3.591270863317619e-15
lhumerus -42.82163837705735 -3.210494908926065 86.7721135996562
lradius 60.00764456549748
lwrist 8.475564558482663
lhand -27.70849359899189 12.572093509272277
lfingers 7.125019999999999
lthumb -0.9085960095324808 42.58073738527212
rclavicle -1.6731096143844173e-15 -3.590399570493389e-15
rhumerus -40.279669814195046 -9.075900003352547 -86.3848534400736
rradius 65.31511787271664
rwrist 1.8157062371911046
rhand -18.000135426405343 30.056361302119527
rfingers 7.125019999999999
rthumb 8.20623088206084 1.042646334210886
31
root 0.24356074320325122 17.65113521724997 -3.8796247534690327 -0.3645291518120716 -0.8106687724629453 -0.00964246770088506
lfemur -6.55500220393751 -1.1890077982972094 -25.17002499311464
ltibia 30.184300850004686
lfoot -1.0893359502868774 -6.836218008342251
ltoes -8.64766356938899
rfemur -35.041215641560875 -6.886453602217523 25.656582830035532
rtibia 78.25815380897247
rfoot -2.118990109569697 -9.001230916519091
rtoes 6.425020343829143
lowerback 14.058523431037656 0.1363991640625393 -1.0439505755759018
upperback -0.22869084138906579 0.12297309762923092 0.7686204132468248
thorax -6.5223423963612905 0.07628173673723598 0.5793231918928862
lowerneck -16.85728974326808 -3.6400351645581717 -2.138144341552481
upperneck 16.45243213423618 -4.842312205406689 2.2203369873498024
head 8.008030670082142 -2.213400656585758 0.5692350095747356
lclavicle -1.67398591182521e-15 -3.591048649977071e-15
lhumerus -41.73851796633617 -4.270699891077045 87.17196238043391
lradius 61.12715621457858
lwrist 10.276269937962617
lhand -28.104327396376537 13.150172920994496
lfingers 7.125019999999999
lthumb -1.136140756950621 43.348329342098175
rclavicle -1.6768134528232254e-15 -3.593018723211926e-15
rhumerus -41.139935673814875 -8.402838607822783 -86.18193441621348
rradius 65.0918875151981
rwrist 0.8298051075822004
rhand -17.880130743030794 29.96951204194217
rfingers 7.125019999999999
rthumb 8.306891406293015 0.7965067697307013
32
root 0.24293237219539088 17.665236083227764 -3.1873820222626357 0.7334736990701749 -0.42474420654609235 -0.6585372191948804
lfemur -4.004588140185282 -0.6166643387593747 -24.76738854699554
ltibia 29.53242938818458
lfoot 2.2191036189991014 -9.297828091301712
ltoes -9.675820415595805
rfemur -36.37731895155632 -6.156272990922295 26.487193263385652
rtibia 60.68372493614271
rfoot -0.5265564712036535 -11.757859385196042
rtoes 3.459074531326515
lowerback 13.923309992508305 -0.1894600808696409 -0.620729311206951
upperback -0.16465311810184668 -0.301181777362995 1.0036451171689187
thorax -6.373049478285635 -0.12432976100583643 0.6484010456240076
lowerneck -17.106005287628093 -3.629603931037615 -2.137476505404701
upperneck 16.47639437403599 -4.840351956748038 2.5254428414721586
head 8.041850445091562 -2.19547724246527 0.661999508435321
lclavicle -1.6733670643593208e-15 -3.590612483698056e-15
lhumerus -39.8594398440659 -5.844329393584834 87.84375840532121
lradius 63.0076129671629
lwrist 12.869098403232133
lhand -28.82888205920831 12.928091507147734
lfingers 7.125019999999999
lthumb -1.947936630105676 43.13059049621293
rclavicle -1.6751727446985812e-15 -3.591858565019349e-15
rhumerus -41.328123355210955 -6.939391068363758 -86.75173618905582
rradius 65.28301978703203
rwrist -0.7807224635088952
rhand -17.91068469339656 29.95873920867968
rfingers 7.125019999999999
rthumb 8.369605333513695 0.8549348695974905
33
root 0.24106740559273498 17.776913217570115 -2.740723068174434 1.4061544790784897 -0.07695537625575594 -0.8720722622117891
lfemur -1.1896766956197364 -0.15005634624801512 -24.79397089791206
ltibia 27.379259575195313
lfoot 7.49395346842007 -11.392674045433687
ltoes -9.760875559061166
rfemur -35.642678712351284 -4.606612599402409 26.415627690144667
rtibia 40.26924866880844
rfoot 2.053844513325336 -14.755371492782169
rtoes 1.2084404942174898
lowerback 13.586232498844911 -0.4658510304957931 -0.5388630952726228
upperback -0.09689308625301679 -0.7166944164750875 1.136185552948857
thorax -6.2172651336157845 -0.32403374849305955 0.8501578392768903
lowerneck -17.287784740531926 -3.5424470239927506 -2.110854916589765
upperneck 16.582016869064482 -4.72360630246806 2.621943258094131
head 8.087907542591918 -2.145997353316728 0.6928909037682833
lclavicle -1.675661104464227e-15 -3.5922355179665495e-15
lhumerus -38.069910156673494 -6.907952548600397 88.30651040156128
lradius 64.77949493517212
lwrist 14.558428796728423
lhand -29.460826669648416 13.164355993832736
lfingers 7.125019999999999
lthumb -2.8174089193159566 43.345088096088666
rclavicle -1.6753468085217327e-15 -3.5919816581073374e-15
rhumerus -41.35617804030906 -5.890252852556916 -87.22986920480946
rradius 65.28979392547485
rwrist -1.567973681206511
rhand -17.748404440342856 29.7490142286145
rfingers 7.125019999999999
rthumb 8.397104347756482 0.4578906782664598
34
root 0.26588954588426017 17.931572689006792 -2.1035357668206114 2.5343112478940304 1.4826265937451342 -0.6465159729832763
lfemur 1.2161738349903732 -0.5460419850904863 -25.257057438869488
ltibia 25.053243875692473
lfoot 14.303574169803026 -13.75366577413301
ltoes -8.39313115628821
rfemur -33.33315013332863 -3.367255655372585 25.5659572284356
rtibia 24.152907131750663
rfoot 0.6771020815724094 -17.940039188865086
rtoes -2.1795833564976945
lowerback 12.303421275283512 -0.9967745165248254 -0.5611361162927317
upperback -0.3248659707771866 -1.430506849706971 1.165147190074976
thorax -5.696618855609807 -0.6580873258455211 1.0849903757125205
lowerneck -17.3391690396552 -3.401213753352461 -2.1425207376300275
upperneck 16.932735275370664 -4.475296006345451 2.5790396211926305
head 8.218930241106348 -2.0579853362689877 0.7030569707786598
lclavicle -1.6771488805855293e-15 -3.593287348280495e-15
lhumerus -36.73323522862217 -7.335926656899197 88.54419649795823
lradius 67.14839481365995
lwrist 15.10230128552806
lhand -29.672260322890864 13.765746644496971
lfingers 7.125019999999999
lthumb -3.125626788308684 43.92906618966749
rclavicle -1.6748560285169647e-15 -3.591634629459902e-15
rhumerus -41.65206645340279 -5.344657137934714 -87.23137833809183
rradius 64.69531027667425
rwrist -1.6328699378992328
rhand -17.475558212477647 29.65721911723775
rfingers 7.125019999999999
rthumb 8.36352692761083 -0.587879197131481
